#!OML:ASF F:\VICON\USERDATA\INSTALL\rory3\rory3.ASF
:FULLY-SPECIFIED
:DEGREES
808
root -3.5007 16.0952 8.03001 14.1142 -8.79818 -4.70424
lowerback -1.45057 -0.519067 7.98674
upperback -3.60498 -0.637826 1.46408
thorax -3.00166 -0.523266 -2.94586
lowerneck -16.3833 -2.42118 -6.31444
upperneck 23.03 -2.09503 1.60533
head 10.1479 -1.34411 1.33921
rclavicle -8.74653e-015 -6.75868e-015
rhumerus -38.1114 10.5386 -86.4932
rradius 44.8752
rwrist 14.2553
rhand -26.3709 -49.8461
rfingers 7.12502
rthumb 0.187559 -79.8258
lclavicle -8.74653e-015 -6.75868e-015
lhumerus -40.7509 -7.31159 78.4064
lradius 66.5305
lwrist -3.88673
lhand -33.005 -45.755
lfingers 7.12502
lthumb -6.21902 -15.8662
rfemur -38.0459 7.71504 31.5184
rtibia 55.4784
rfoot -23.6537 -16.5496
rtoes -5.03941
lfemur -71.5945 20.0533 -7.45694
ltibia 125.5
lfoot -20.9331 -3.10475
ltoes -9.48141
809
root -3.52254 16.0369 8.00461 13.8217 -8.79639 -4.94767
lowerback -0.892472 -0.586972 7.98814
upperback -3.53754 -0.672807 1.56812
thorax -3.24909 -0.545646 -2.83227
lowerneck -16.2294 -2.31983 -6.22338
upperneck 22.9845 -2.03961 1.80014
head 10.0991 -1.28788 1.40153
rclavicle 9.86469e-015 5.76476e-015
rhumerus -37.7205 10.6213 -86.4652
rradius 44.7679
rwrist 14.0321
rhand -26.3228 -49.6566
rfingers 7.12502
rthumb 0.233971 -79.6362
lclavicle 9.86469e-015 5.76476e-015
lhumerus -40.6534 -6.7991 78.2171
lradius 67.0739
lwrist -3.11392
lhand -32.9397 -46.1692
lfingers 7.12502
lthumb -6.156 -16.2787
rfemur -38.2742 7.83357 31.9807
rtibia 56.2122
rfoot -23.5323 -16.9877
rtoes -5.67177
lfemur -71.7195 19.7325 -7.14171
ltibia 124.816
lfoot -20.7112 -2.9119
ltoes -10.2393
810
root -3.54436 15.9942 7.98526 13.1779 -8.63844 -4.50997
lowerback -0.0242718 -0.734864 7.42082
upperback -3.52411 -0.797114 1.42545
thorax -3.72877 -0.608016 -2.65013
lowerneck -15.9205 -2.326 -6.13861
upperneck 22.9452 -2.1494 2.01534
head 10.0312 -1.30727 1.45049
rclavicle 4.43538e-015 5.96354e-015
rhumerus -37.4685 10.4451 -86.4755
rradius 44.6375
rwrist 13.9249
rhand -25.9562 -49.5862
rfingers 7.12502
rthumb 0.58804 -79.5651
lclavicle 4.43538e-015 5.96354e-015
lhumerus -40.7731 -6.73669 78.1253
lradius 67.7438
lwrist -1.68031
lhand -32.985 -45.5295
lfingers 7.12502
lthumb -6.19971 -15.6402
rfemur -38.1535 7.63091 31.7464
rtibia 56.7394
rfoot -23.467 -17.2231
rtoes -5.90112
lfemur -71.5595 18.6638 -7.54259
ltibia 124.119
lfoot -20.2642 -2.39031
ltoes -11.062
811
root -3.56987 16.0428 8.02798 12.502 -8.06381 -3.62984
lowerback 0.0863116 -0.955333 6.87059
upperback -3.47154 -1.10468 1.0869
thorax -3.75894 -0.749271 -2.68246
lowerneck -15.4165 -2.32117 -6.055
upperneck 22.9574 -2.23534 2.14752
head 9.9433 -1.3279 1.47505
rclavicle -1.00883e-014 1.27222e-014
rhumerus -37.6972 10.0073 -86.4602
rradius 44.9697
rwrist 13.844
rhand -25.4942 -49.5949
rfingers 7.12502
rthumb 1.03427 -79.5722
lclavicle -1.00883e-014 1.27222e-014
lhumerus -41.0079 -6.91576 78.0839
lradius 68.5038
lwrist -0.644083
lhand -33.1484 -45.0618
lfingers 7.12502
lthumb -6.35745 -15.1772
rfemur -37.2855 6.7658 31.0305
rtibia 56.6555
rfoot -23.9169 -17.0998
rtoes -5.63474
lfemur -70.3884 16.5057 -8.48756
ltibia 122.86
lfoot -20.0316 -1.0733
ltoes -11.5991
812
root -3.58987 16.0725 8.05396 12.1082 -7.43508 -2.98282
lowerback 0.104661 -1.15864 6.49667
upperback -3.29473 -1.39594 0.869528
thorax -3.60652 -0.877898 -2.69054
lowerneck -15.8424 -2.32227 -6.04585
upperneck 23.3385 -2.24194 2.25769
head 10.1621 -1.31923 1.51081
rclavicle 1.24489e-014 1.2921e-014
rhumerus -37.6052 9.61531 -86.3147
rradius 45.575
rwrist 13.7513
rhand -24.9444 -49.5629
rfingers 7.12502
rthumb 1.5653 -79.5369
lclavicle 1.24489e-014 1.2921e-014
lhumerus -40.5935 -6.93648 77.9868
lradius 69.1369
lwrist -0.437707
lhand -33.2038 -45.8285
lfingers 7.12502
lthumb -6.41096 -15.9455
rfemur -36.7179 6.0712 30.5016
rtibia 56.3762
rfoot -24.2502 -16.8832
rtoes -4.76319
lfemur -70.109 14.8857 -9.24431
ltibia 122.073
lfoot -19.6487 -0.210119
ltoes -11.2281
813
root -3.60636 16.1131 8.07816 11.9299 -6.78482 -2.72073
lowerback -0.0865415 -1.2538 6.54375
upperback -3.28424 -1.54083 0.75409
thorax -3.5064 -0.950298 -2.83549
lowerneck -15.6164 -2.42203 -6.27078
upperneck 23.4921 -2.40234 2.50033
head 10.1881 -1.3881 1.61522
rclavicle 1.97294e-014 2.98177e-015
rhumerus -37.8103 9.2819 -86.1596
rradius 46.117
rwrist 13.522
rhand -24.6721 -49.4725
rfingers 7.12502
rthumb 1.82826 -79.4444
lclavicle 1.97294e-014 2.98177e-015
lhumerus -40.5454 -7.48544 78.2835
lradius 69.7274
lwrist 0.597131
lhand -33.1546 -45.1469
lfingers 7.12502
lthumb -6.36348 -15.2625
rfemur -36.1276 5.47545 30.3453
rtibia 55.721
rfoot -24.2949 -16.7068
rtoes -4.12369
lfemur -70.2696 13.7433 -9.59612
ltibia 121.518
lfoot -18.9684 0.149597
ltoes -10.4713
814
root -3.62259 16.1732 8.11732 11.7422 -6.19597 -2.43593
lowerback -0.467417 -1.24184 6.58747
upperback -3.18969 -1.5627 0.579634
thorax -3.20128 -0.954148 -3.05054
lowerneck -15.7211 -2.68761 -6.34916
upperneck 23.7927 -2.76956 2.56796
head 10.3382 -1.55847 1.60331
rclavicle -3.72721e-017 -7.35503e-015
rhumerus -38.1346 8.9532 -86.0206
rradius 46.8123
rwrist 13.1965
rhand -24.7142 -49.686
rfingers 7.12502
rthumb 1.78756 -79.6583
lclavicle -3.72721e-017 -7.35503e-015
lhumerus -40.313 -8.2772 78.5142
lradius 70.2902
lwrist 0.529474
lhand -33.5924 -45.1638
lfingers 7.12502
lthumb -6.7861 -15.2925
rfemur -35.3107 4.93123 30.127
rtibia 54.8541
rfoot -24.3431 -16.4882
rtoes -3.77291
lfemur -70.2451 12.7808 -9.93214
ltibia 121.101
lfoot -18.4242 0.548921
ltoes -10.7411
815
root -3.64215 16.2416 8.14985 11.6488 -5.81692 -2.25616
lowerback -0.601587 -1.2058 6.54394
upperback -3.20446 -1.52761 0.472179
thorax -3.13891 -0.935648 -3.14148
lowerneck -15.9431 -2.87912 -6.39451
upperneck 24.1139 -3.02814 2.61232
head 10.5131 -1.67745 1.59071
rclavicle 7.25564e-015 9.34288e-015
rhumerus -38.6266 8.87952 -85.9619
rradius 47.5203
rwrist 13.0068
rhand -25.0272 -49.5457
rfingers 7.12502
rthumb 1.48528 -79.5203
lclavicle 7.25564e-015 9.34288e-015
lhumerus -40.1693 -9.05082 78.6872
lradius 70.7563
lwrist 0.132291
lhand -33.8283 -45.0152
lfingers 7.12502
lthumb -7.01383 -15.1514
rfemur -34.4914 4.7555 29.976
rtibia 53.7233
rfoot -23.9965 -16.4871
rtoes -3.97264
lfemur -70.4465 12.5135 -10.084
ltibia 120.958
lfoot -18.2682 0.647595
ltoes -11.8151
816
root -3.66043 16.3163 8.16813 11.7339 -5.67574 -2.30248
lowerback -0.535407 -1.15118 6.61203
upperback -3.37254 -1.44237 0.461508
thorax -3.34547 -0.905456 -3.1889
lowerneck -15.7527 -2.95643 -6.63761
upperneck 24.0243 -3.15957 2.90146
head 10.4598 -1.72601 1.71798
rclavicle -1.75055e-014 -1.68967e-015
rhumerus -39.1999 9.21286 -86.0437
rradius 48.0713
rwrist 12.9185
rhand -25.8003 -49.0577
rfingers 7.12502
rthumb 0.738595 -79.0362
lclavicle -1.75055e-014 -1.68967e-015
lhumerus -40.3419 -9.69101 78.8726
lradius 71.2546
lwrist -0.361712
lhand -33.8 -44.8746
lfingers 7.12502
lthumb -6.98651 -15.0099
rfemur -33.773 4.98048 30.0053
rtibia 52.3275
rfoot -23.196 -16.6138
rtoes -4.48346
lfemur -71.0068 13.0047 -9.95479
ltibia 121.137
lfoot -18.2215 0.183419
ltoes -12.6042
